<?xml version="1.0" encoding="UTF-8" standalone="no"?>
<svg width="34px" height="35px" viewBox="0 0 34 35" version="1.1" xmlns="http://www.w3.org/2000/svg" xmlns:xlink="http://www.w3.org/1999/xlink" xmlns:sketch="http://www.bohemiancoding.com/sketch/ns">
    <!-- Generator: Sketch 3.2.2 (9983) - http://www.bohemiancoding.com/sketch -->
    <title>pawicon</title>
    <desc>Created with Sketch.</desc>
    <defs></defs>
    <g id="Page-1" stroke="none" stroke-width="1" fill="none" fill-rule="evenodd" sketch:type="MSPage">
        <g id="pawicon" sketch:type="MSArtboardGroup" stroke="#1170B7" stroke-width="1.4">
            <path d="M22.0384295,13.9474891 C23.4267156,13.9205093 26.582733,12.1188839 26.582733,6.63305329 C26.582733,2.72068886 25.1522442,1.01965692 23.3848923,1.01965692 C20.8602793,1.01965692 18.1463193,4.25161309 18.1463193,9.01450101 C18.1463193,13.7773889 20.9444318,13.9687526 22.0384295,13.9474891 L22.0384295,13.9474891 Z M12.5475213,13.9278322 C13.9360529,13.9278322 15.9136671,13.2474239 15.9136671,8.484536 C15.9136671,3.72164809 13.7256716,1 11.2010586,1 C9.43369925,1 8.00321045,2.70103194 8.00321045,6.61340388 C8.00321045,12.099227 11.1589823,13.9278322 12.5475213,13.9278322 L12.5475213,13.9278322 Z M33,14.9270816 C33,12.7724391 32.1023656,10.504394 29.9704644,10.504394 C27.8385706,10.504394 24.7529332,14.2041389 24.7529332,17.98893 C24.7529332,20.1435575 25.9521254,22.2415099 27.7824689,22.2415099 C29.7390486,22.2415099 33,19.8175428 33,14.9270816 L33,14.9270816 Z M1,14.9484559 C1,19.838917 4.26095137,22.2628842 6.21753112,22.2628842 C8.04787464,22.2628842 9.24706676,20.1649317 9.24706676,18.0103043 C9.24706676,14.2255131 6.16142943,10.5257683 4.02953564,10.5257683 C1.8976344,10.5257683 1,12.7938134 1,14.9484559 L1,14.9484559 Z M17.0586631,32.5129918 C19.9613903,32.5129976 20.4951175,33.9999995 23.1319339,33.9999995 C25.7687503,33.9999995 27.3283071,32.5266757 27.3538207,31.108244 C27.4099299,27.9896905 22.8933204,18.0310779 17.0586633,18.0310779 C11.1676367,18.0310779 6.40023155,27.5927852 6.40023155,31.1082442 C6.40023155,33.3195842 8.46755433,33.9999995 10.60791,34 C13.8618524,34 14.0564066,32.5129858 17.0586631,32.5129918 Z" id="Shape" sketch:type="MSShapeGroup"></path>
        </g>
    </g>
</svg>